<?xml version="1.0" encoding="utf-8"?>
<!-- Generator: Adobe Illustrator 25.3.1, SVG Export Plug-In . SVG Version: 6.00 Build 0)  -->
<svg version="1.1" id="Layer_1" xmlns="http://www.w3.org/2000/svg" xmlns:xlink="http://www.w3.org/1999/xlink" x="0px" y="0px"
	 width="875.75px" height="141.09px" viewBox="0 0 875.75 141.09" style="enable-background:new 0 0 875.75 141.09;"
	 xml:space="preserve">
<style type="text/css">
	.st0{fill:#FFFFFF;}
</style>
<g>
	<g>
		<g>
			<path class="st0" d="M195.2,43.43c14.95,0,27.11,12.16,27.11,27.11s-12.16,27.11-27.11,27.11h-18.59V43.43H195.2 M195.2,27.91
				h-25.58c-4.66,0-8.53,3.86-8.53,8.53v68.21c0,4.66,3.86,8.53,8.53,8.53h25.58c23.58,0,42.63-19.05,42.63-42.63
				S218.78,27.91,195.2,27.91L195.2,27.91z"/>
			<g>
				<path class="st0" d="M312.68,105.43c0,4.24-3.51,7.75-7.75,7.75s-7.75-3.51-7.75-7.75V82.18c0-8.6-6.9-15.5-15.5-15.5
					s-15.5,6.9-15.5,15.5v23.25c0,4.24-3.51,7.75-7.75,7.75s-7.75-3.51-7.75-7.75V35.67c0-4.24,3.51-7.75,7.75-7.75
					c4.24,0,7.75,3.51,7.75,7.75v19.74c4.48-2.66,9.81-4.24,15.5-4.24c17.07,0,31,13.93,31,31V105.43z"/>
				<path class="st0" d="M343.21,105.43c0,4.24-3.51,7.75-7.75,7.75s-7.75-3.51-7.75-7.75v-46.5c0-4.24,3.51-7.75,7.75-7.75
					s7.75,3.51,7.75,7.75V105.43z"/>
				<path class="st0" d="M445.42,105.43c0,4.24-3.51,7.75-7.75,7.75c-2.06,0-4-0.85-5.45-2.3l-29.43-29.43l-29.42,29.43
					c-1.45,1.45-3.39,2.3-5.45,2.3c-4.24,0-7.75-3.51-7.75-7.75V35.67c0-4.24,3.51-7.75,7.75-7.75s7.75,3.51,7.75,7.75v51.11
					l21.68-21.68c1.45-1.57,3.51-2.3,5.45-2.3s4,0.73,5.45,2.3l21.68,21.68V35.67c0-4.24,3.51-7.75,7.75-7.75s7.75,3.51,7.75,7.75
					L445.42,105.43L445.42,105.43z"/>
				<path class="st0" d="M477.88,105.43c0,4.24-3.51,7.75-7.75,7.75s-7.75-3.51-7.75-7.75v-46.5c0-4.24,3.51-7.75,7.75-7.75
					s7.75,3.51,7.75,7.75V105.43z"/>
				<path class="st0" d="M527.77,97.68c2.18,0,3.87-1.69,3.87-3.88s-1.69-3.88-3.87-3.88h-15.5c-10.66,0-19.38-8.72-19.38-19.38
					s8.72-19.38,19.38-19.38h23.25c4.24,0,7.75,3.51,7.75,7.75s-3.51,7.75-7.75,7.75h-23.25c-2.18,0-3.88,1.69-3.88,3.88
					s1.69,3.88,3.88,3.88h15.5c10.66,0,19.37,8.72,19.37,19.38s-8.72,19.38-19.37,19.38h-27.13c-4.24,0-7.75-3.51-7.75-7.75
					s3.51-7.75,7.75-7.75H527.77z"/>
				<path class="st0" d="M589.29,113.18c-17.08,0-31-13.93-31-31s13.92-31,31-31c17.07,0,31,13.93,31,31c0,4.24-3.51,7.75-7.75,7.75
					h-36.7c2.67,4.72,7.63,7.75,13.44,7.75h7.75c4.24,0,7.75,3.51,7.75,7.75s-3.51,7.75-7.75,7.75H589.29z M575.85,74.42h26.88
					c-2.66-4.6-7.75-7.75-13.44-7.75C583.48,66.67,578.51,69.82,575.85,74.42z"/>
				<circle class="st0" cx="335.46" cy="36.64" r="8.72"/>
				<circle class="st0" cx="470.13" cy="36.64" r="8.72"/>
			</g>
		</g>
		<g>
			<path class="st0" d="M97.83,1.29h-87.7c-4.91,0-8.89,3.98-8.89,8.89v96.88c0,3.6,2.17,6.84,5.49,8.21
				c3.31,1.37,7.14,0.61,9.69-1.93l42.82-42.82c3.47-3.47,3.47-9.1,0-12.57s-9.1-3.47-12.57,0L19.02,85.6V19.07h78.81
				c13.31,0,24.13,10.83,24.13,24.13v54.67c0,13.31-10.83,24.13-24.13,24.13H55.44l27.64-27.64c3.47-3.47,3.47-9.1,0-12.57
				s-9.1-3.47-12.57,0l-42.82,42.82c-2.54,2.54-3.3,6.37-1.93,9.69c1.38,3.32,4.62,5.49,8.21,5.49h63.85
				c23.11,0,41.91-18.8,41.91-41.91V43.21C139.74,20.1,120.94,1.29,97.83,1.29z"/>
			<path class="st0" d="M97.46,76.31c4.91,0,8.89-3.98,8.89-8.89V43.58c0-4.91-3.98-8.89-8.89-8.89H73.62
				c-4.91,0-8.89,3.98-8.89,8.89s3.98,8.89,8.89,8.89h14.95v14.95C88.57,72.33,92.55,76.31,97.46,76.31z"/>
		</g>
	</g>
	<g>
		<path class="st0" d="M659.38,113.34c-3.74,0-6.96-0.78-9.56-2.26c-2.61-1.57-4.7-3.74-6.09-6.52c-1.39-2.87-2.09-6.17-2.09-10.09
			c0-3.91,0.7-7.22,2.09-10s3.48-5.04,6.09-6.52c2.61-1.57,5.83-2.26,9.56-2.26c2.09,0,4,0.26,5.91,0.87s3.57,1.39,4.96,2.43
			c0.78,0.52,1.22,1.04,1.3,1.74s0,1.3-0.35,1.83c-0.35,0.52-0.78,0.87-1.48,1.04c-0.61,0.17-1.3,0-2.09-0.52
			c-1.22-0.87-2.43-1.48-3.83-1.91c-1.39-0.43-2.87-0.61-4.35-0.61c-4,0-7.04,1.22-9.13,3.65s-3.13,5.91-3.13,10.43
			s1.04,8,3.13,10.43s5.13,3.65,9.13,3.65c1.57,0,3.04-0.17,4.43-0.61c1.39-0.43,2.78-1.04,4-2c0.78-0.52,1.48-0.7,2-0.52
			c0.61,0.17,1.04,0.52,1.39,1.04c0.35,0.52,0.43,1.13,0.35,1.74c-0.09,0.61-0.43,1.22-1.13,1.65c-1.48,1.13-3.13,2-5.13,2.61
			C663.47,113.08,661.47,113.34,659.38,113.34z"/>
		<path class="st0" d="M677.12,113.26c-1.04,0-1.74-0.35-2.17-1.04c-0.43-0.7-0.35-1.48,0.09-2.52l14.17-31.82
			c0.35-0.78,0.78-1.39,1.3-1.74c0.52-0.35,1.13-0.52,1.83-0.52c0.61,0,1.22,0.17,1.74,0.52s0.96,0.96,1.3,1.74l14.17,31.82
			c0.43,1.04,0.52,1.83,0.17,2.52s-1.04,0.96-2.09,0.96c-0.78,0-1.39-0.17-1.83-0.61c-0.43-0.35-0.87-0.96-1.22-1.74l-3.04-7.04
			h-18.69l-2.96,7.04c-0.35,0.87-0.7,1.48-1.13,1.83C678.34,113.08,677.82,113.26,677.12,113.26z M692.25,82.04l-7.39,17.48h14.87
			l-7.39-17.48C692.34,82.04,692.25,82.04,692.25,82.04z"/>
		<path class="st0" d="M718.51,113.26c-1.83,0-2.7-0.96-2.7-2.78V78.82c0-1.83,0.96-2.78,2.78-2.78h12.52c4,0,7.04,0.96,9.22,2.87
			c2.17,1.91,3.22,4.52,3.22,8c0,2.78-0.7,5.04-2.17,6.78s-3.57,2.96-6.26,3.57c1.65,0.52,3.04,1.91,4.26,4l4.52,8.35
			c0.52,0.96,0.61,1.83,0.35,2.52c-0.35,0.78-1.04,1.13-2.17,1.13c-0.78,0-1.39-0.17-1.91-0.43c-0.52-0.35-0.87-0.78-1.22-1.48
			l-5.48-10.17c-0.7-1.39-1.57-2.26-2.52-2.78c-0.96-0.43-2.17-0.7-3.65-0.7h-5.91v12.78C721.21,112.3,720.34,113.26,718.51,113.26z
			 M721.21,93.61h8.96c5.39,0,8.09-2.17,8.09-6.61c0-4.43-2.7-6.61-8.09-6.61h-8.96V93.61z"/>
		<path class="st0" d="M754.16,112.91c-1.91,0-2.96-0.96-2.96-2.96V79c0-1.91,0.96-2.96,2.96-2.96h19.04c1.48,0,2.26,0.7,2.26,2.17
			s-0.78,2.26-2.26,2.26h-16.78v11.56h15.65c1.48,0,2.26,0.7,2.26,2.17s-0.78,2.17-2.26,2.17h-15.65v12.09h16.78
			c1.48,0,2.26,0.7,2.26,2.17c0,1.48-0.78,2.17-2.26,2.17h-19.04V112.91z"/>
		<path class="st0" d="M784.94,112.91c-1.91,0-2.96-0.96-2.96-2.96V79c0-1.91,0.96-2.96,2.96-2.96h19.04c1.48,0,2.26,0.7,2.26,2.17
			s-0.78,2.26-2.26,2.26H787.2v11.56h15.65c1.48,0,2.26,0.7,2.26,2.17s-0.78,2.17-2.26,2.17H787.2v12.09h16.78
			c1.48,0,2.26,0.7,2.26,2.17c0,1.48-0.78,2.17-2.26,2.17h-19.04L784.94,112.91L784.94,112.91z"/>
		<path class="st0" d="M815.55,113.26c-1.83,0-2.7-0.96-2.7-2.78V78.82c0-1.83,0.96-2.78,2.78-2.78h12.52c4,0,7.04,0.96,9.22,2.87
			c2.17,1.91,3.22,4.52,3.22,8c0,2.78-0.7,5.04-2.17,6.78s-3.57,2.96-6.26,3.57c1.65,0.52,3.04,1.91,4.26,4l4.52,8.35
			c0.52,0.96,0.61,1.83,0.35,2.52c-0.35,0.78-1.04,1.13-2.17,1.13c-0.78,0-1.39-0.17-1.91-0.43c-0.52-0.35-0.87-0.78-1.22-1.48
			l-5.48-10.17c-0.7-1.39-1.57-2.26-2.52-2.78c-0.96-0.43-2.17-0.7-3.65-0.7h-5.91v12.78C818.25,112.3,817.29,113.26,815.55,113.26z
			 M818.25,93.61h8.96c5.39,0,8.09-2.17,8.09-6.61c0-4.43-2.7-6.61-8.09-6.61h-8.96V93.61z"/>
		<path class="st0" d="M860.42,113.34c-2.43,0-4.7-0.26-6.96-0.87c-2.17-0.52-4.17-1.39-5.74-2.52c-0.7-0.43-1.04-1.04-1.22-1.65
			c-0.17-0.61-0.09-1.22,0.17-1.74s0.7-0.96,1.22-1.13c0.52-0.17,1.13-0.09,1.83,0.35c1.57,1.04,3.22,1.74,4.96,2.26
			c1.74,0.43,3.65,0.7,5.74,0.7c2.96,0,5.13-0.52,6.52-1.57c1.39-1.04,2.09-2.43,2.09-4.17c0-1.39-0.52-2.52-1.48-3.3
			c-1.04-0.78-2.7-1.48-5.04-2l-5.57-1.13c-3.3-0.7-5.74-1.83-7.39-3.48s-2.43-3.74-2.43-6.52c0-2.17,0.61-4.17,1.74-5.83
			c1.13-1.65,2.78-2.96,4.87-3.91c2.09-0.96,4.52-1.39,7.22-1.39c2.17,0,4.17,0.26,6.09,0.87c1.91,0.52,3.57,1.39,5.13,2.52
			c0.61,0.43,0.96,0.96,1.04,1.48c0.09,0.52,0,1.13-0.26,1.65c-0.26,0.52-0.7,0.87-1.22,1.04c-0.52,0.17-1.22,0-1.91-0.43
			c-1.39-0.87-2.78-1.57-4.17-2c-1.39-0.43-2.96-0.61-4.7-0.61c-2.61,0-4.61,0.61-6.17,1.74c-1.48,1.13-2.26,2.7-2.26,4.61
			c0,1.48,0.43,2.61,1.39,3.48s2.52,1.57,4.7,2l5.57,1.13c3.48,0.7,6.09,1.83,7.83,3.39c1.74,1.48,2.52,3.57,2.52,6.17
			c0,2.17-0.61,4.09-1.74,5.65s-2.78,2.87-4.87,3.74C865.81,112.91,863.29,113.34,860.42,113.34z"/>
	</g>
</g>
</svg>
